PathFileType	4	(X/Y/Z)	/Users/itak/Documents/Research/Walk-IL/dataset/trc/00006_00004.trc
DataRate	CameraRate	NumFrames	NumMarkers	Units	OrigDataRate	OrigDataStartFrame	OrigNumFrames
100.000000	100.000000	4	53	mm	100.000000	0	616
Frame#	Time	RPSI			LPSI			L3			STRN			T10			C7			CLAV			RBAK			LBAK			LSHO			LUPA			LAEL			LAOL			LWTS			LWPS			LFRA			LIFD			LHPS			LHTS			RSHO			RUPA			RAEL			RAOL			RWTS			RWPS			RFRA			RIFD			RHTS			RHPS			RBHD			LFHD			RFHD			LBHD			LHIP			RHIP			RASI			LASI			LKNE			LTHI			LANK			LTIP			LTOE			LMT1			LMT5			LHEE			RKNE			RTHI			RANK			RTIP			RTOE			RMT1			RMT5			RHEE			
		X1	Y1	Z1	X2	Y2	Z2	X3	Y3	Z3	X4	Y4	Z4	X5	Y5	Z5	X6	Y6	Z6	X7	Y7	Z7	X8	Y8	Z8	X9	Y9	Z9	X10	Y10	Z10	X11	Y11	Z11	X12	Y12	Z12	X13	Y13	Z13	X14	Y14	Z14	X15	Y15	Z15	X16	Y16	Z16	X17	Y17	Z17	X18	Y18	Z18	X19	Y19	Z19	X20	Y20	Z20	X21	Y21	Z21	X22	Y22	Z22	X23	Y23	Z23	X24	Y24	Z24	X25	Y25	Z25	X26	Y26	Z26	X27	Y27	Z27	X28	Y28	Z28	X29	Y29	Z29	X30	Y30	Z30	X31	Y31	Z31	X32	Y32	Z32	X33	Y33	Z33	X34	Y34	Z34	X35	Y35	Z35	X36	Y36	Z36	X37	Y37	Z37	X38	Y38	Z38	X39	Y39	Z39	X40	Y40	Z40	X41	Y41	Z41	X42	Y42	Z42	X43	Y43	Z43	X44	Y44	Z44	X45	Y45	Z45	X46	Y46	Z46	X47	Y47	Z47	X48	Y48	Z48	X49	Y49	Z49	X50	Y50	Z50	X51	Y51	Z51	X52	Y52	Z52	X53	Y53	Z53	

1	0	-1243.681640625	1068.968139648438	-169.5670013427734	-1263.800170898438	1061.69482421875	-332.2908935546875	-1261.167846679688	1128.224853515625	-258.9711303710938	-1049.365356445312	1326.502197265625	-273.4828796386719	-1295.233520507812	1266.8974609375	-259.8128356933594	-1261.636108398438	1536.237670898438	-274.1045532226562	-1097.905639648438	1450.890625	-276.0168762207031	-1300.157592773438	1397.196044921875	-191.415771484375	-1280.87841796875	1493.40966796875	-370.980224609375	-1181.655151367188	1504.886962890625	-449.5269165039062	-1208.774169921875	1377.985717773438	-525.2593994140625	-1198.606079101562	1158.522827148438	-544.4034423828125	-1253.841186523438	1146.831298828125	-454.0854797363281	-1108.418701171875	907.2296752929688	-483.8278503417969	-1185.006591796875	891.6901245117188	-525.6671142578125	-1184.096313476562	1042.724243164062	-547.8599853515625	-1080.22314453125	725.7474975585938	-460.5451354980469	-1151.49658203125	802.699462890625	-523.2549438476562	-1085.062133789062	814.6627807617188	-495.3033752441406	-1174.292236328125	1527.266967773438	-102.8590850830078	-1180.117553710938	1453.871826171875	-29.82912826538086	-1198.890258789062	1182.659545898438	-9.304924964904785	-1208.430419921875	1156.171508789062	-106.2807312011719	-1067.35791015625	926.1032104492188	-51.79100036621094	-1127.687744140625	910.5428466796875	16.51226425170898	-1182.29638671875	1107.795166015625	3.622177839279175	-1051.71337890625	747.9205322265625	-77.740478515625	-1030.90087890625	817.23193359375	-40.54391479492188	-1084.951538085938	810.8999633789062	11.93874740600586	-1239.329223632812	1722.797729492188	-313.0125732421875	-1028.941162109375	1745.708129882812	-256.2904968261719	-1062.085083007812	1748.261962890625	-349.1691589355469	-1184.531982421875	1715.28369140625	-179.2333984375	-1176.435913085938	962.8887329101562	-447.9115905761719	-1119.55810546875	964.1580200195312	-81.69178771972656	-1024.4248046875	996.259765625	-163.3526916503906	-1054.456176757812	1010.862487792969	-396.8619995117188	-1137.146484375	517.0509033203125	-399.8989868164062	-1159.104125976562	653.7648315429688	-435.6069946289062	-1234.474609375	41.65098571777344	-393.9990844726562	-1219.818481445312	288.5111389160156	-415.0128479003906	-1013.0869140625	41.25470352172852	-333.7125549316406	-1072.781860351562	49.56984710693359	-315.6050720214844	-1109.547241210938	40.68370819091797	-415.2471618652344	-1303.176879882812	48.99461364746094	-339.6908264160156	-1127.543579101562	526.316650390625	-120.9284362792969	-1099.260864257812	796.3140258789062	-83.70532989501953	-1242.6533203125	48.40916442871094	-124.7393264770508	-1155.58740234375	406.4515075683594	-116.3447952270508	-1014.772033691406	45.30644607543945	-182.2245025634766	-1079.805297851562	50.50239562988281	-208.6335144042969	-1092.7001953125	45.48798370361328	-112.3139572143555	-1274.942749023438	67.27234649658203	-145.1778259277344	
2	0.01	-1243.650756835938	1068.966918945312	-169.5363159179688	-1263.789672851562	1061.694946289062	-332.279296875	-1261.158935546875	1128.21533203125	-258.9378356933594	-1049.28271484375	1326.518310546875	-273.4698486328125	-1295.178588867188	1266.911499023438	-259.7814331054688	-1261.58447265625	1536.262817382812	-274.1201477050781	-1097.833740234375	1450.91943359375	-276.0194091796875	-1300.11083984375	1397.214965820312	-191.4063568115234	-1280.813232421875	1493.395629882812	-370.98583984375	-1181.5556640625	1504.886352539062	-449.5407104492188	-1208.727416992188	1377.972778320312	-525.2684936523438	-1198.562377929688	1158.511352539062	-544.4088134765625	-1253.794067382812	1146.8291015625	-454.0957641601562	-1108.371948242188	907.1703491210938	-483.8705139160156	-1184.953125	891.6883544921875	-525.6846923828125	-1184.0341796875	1042.723876953125	-547.8746337890625	-1080.3974609375	725.5662841796875	-460.4792175292969	-1151.483154296875	802.6945190429688	-523.276611328125	-1084.98291015625	814.6705322265625	-495.3085632324219	-1174.234375	1527.277465820312	-102.8770446777344	-1180.036743164062	1453.896850585938	-29.82172584533691	-1198.776977539062	1182.67041015625	-9.328005790710449	-1208.347900390625	1156.197021484375	-106.2930603027344	-1067.251220703125	926.1557006835938	-51.90073394775391	-1127.510864257812	910.5703735351562	16.40900039672852	-1182.191040039062	1107.793090820312	3.579426527023315	-1051.73193359375	747.8394775390625	-77.7908935546875	-1030.87744140625	817.241455078125	-40.62871170043945	-1084.72119140625	810.9521484375	11.78388404846191	-1239.288208007812	1722.782592773438	-313.1632995605469	-1028.950317382812	1745.742065429688	-256.1630249023438	-1061.958618164062	1748.269165039062	-349.1244201660156	-1184.631469726562	1715.310180664062	-179.3398590087891	-1176.436279296875	962.8864135742188	-447.8838195800781	-1119.5771484375	964.1509399414062	-81.66553497314453	-1024.412719726562	996.2595825195312	-163.3321990966797	-1054.46630859375	1010.86083984375	-396.8404846191406	-1137.140747070312	517.0491333007812	-399.8887939453125	-1159.10986328125	653.7682495117188	-435.5947265625	-1234.47314453125	41.64129638671875	-394.0036010742188	-1219.805908203125	288.5074462890625	-415.0097961425781	-1013.087280273438	41.25519943237305	-333.7162170410156	-1072.781127929688	49.57015991210938	-315.6087341308594	-1109.546508789062	40.68057250976562	-415.2472229003906	-1303.188842773438	49.00301361083984	-339.6916198730469	-1127.534423828125	526.3151245117188	-120.917839050293	-1099.23193359375	796.3392944335938	-83.69267272949219	-1242.655029296875	48.40889739990234	-124.7356567382812	-1155.5712890625	406.4498291015625	-116.3391647338867	-1014.778503417969	45.30155944824219	-182.2254486083984	-1079.806762695312	50.50352096557617	-208.6327972412109	-1092.694946289062	45.4891357421875	-112.3121032714844	-1280.619384765625	63.52208709716797	-149.3953704833984	
3	0.02	-1243.60986328125	1068.965087890625	-169.4942932128906	-1263.774169921875	1061.695922851562	-332.2611999511719	-1261.144897460938	1128.20263671875	-258.8965148925781	-1049.177978515625	1326.539306640625	-273.4528503417969	-1295.108520507812	1266.92919921875	-259.7416076660156	-1261.5205078125	1536.290771484375	-274.137939453125	-1097.736938476562	1450.959106445312	-276.0226135253906	-1300.05517578125	1397.23828125	-191.3961029052734	-1280.728393554688	1493.37939453125	-370.9925231933594	-1181.43603515625	1504.884765625	-449.5558776855469	-1208.6669921875	1377.957763671875	-525.2782592773438	-1198.497314453125	1158.498168945312	-544.4160766601562	-1253.728149414062	1146.826049804688	-454.1099243164062	-1108.30224609375	907.1209716796875	-483.9163208007812	-1184.877075195312	891.6869506835938	-525.7069702148438	-1183.951538085938	1042.72412109375	-547.893310546875	-1080.555297851562	725.3881225585938	-460.4190368652344	-1151.456298828125	802.6895141601562	-523.3046875	-1084.883422851562	814.6776733398438	-495.3144836425781	-1174.16064453125	1527.291015625	-102.9003295898438	-1179.935913085938	1453.927734375	-29.8112907409668	-1198.639770507812	1182.68310546875	-9.356651306152344	-1208.239135742188	1156.229736328125	-106.3083572387695	-1067.107177734375	926.2207641601562	-52.04159164428711	-1127.288696289062	910.6036987304688	16.28121948242188	-1182.055908203125	1107.7900390625	3.52788519859314	-1051.633544921875	747.8347778320312	-77.88614654541016	-1030.828491210938	817.2620849609375	-40.74895477294922	-1084.418579101562	811.013427734375	11.59395599365234	-1239.21630859375	1722.765380859375	-313.3693542480469	-1028.950805664062	1745.77685546875	-256.0131225585938	-1061.793823242188	1748.26513671875	-349.0671081542969	-1184.753784179688	1715.354736328125	-179.4705352783203	-1176.435180664062	962.8833618164062	-447.8475341796875	-1119.594360351562	964.1409912109375	-81.63328552246094	-1024.398193359375	996.25927734375	-163.3049163818359	-1054.468383789062	1010.859680175781	-396.8084411621094	-1137.128173828125	517.0459594726562	-399.8741149902344	-1159.115966796875	653.7730712890625	-435.5794372558594	-1234.470581054688	41.63328552246094	-394.0085144042969	-1219.797119140625	288.5076599121094	-415.00341796875	-1013.089660644531	41.25648498535156	-333.7188110351562	-1072.780639648438	49.56958389282227	-315.6124877929688	-1109.546142578125	40.67788314819336	-415.2478637695312	-1303.197387695312	49.00959777832031	-339.6933898925781	-1127.520751953125	526.3099365234375	-120.9038543701172	-1099.19384765625	796.3738403320312	-83.67059326171875	-1242.656494140625	48.40844345092773	-124.7324829101562	-1155.546508789062	406.4470825195312	-116.3339996337891	-1014.784301757812	45.29718399047852	-182.2264709472656	-1079.807373046875	50.50412750244141	-208.6321868896484	-1092.688842773438	45.49058151245117	-112.3117752075195	-1286.736938476562	59.48359298706055	-153.9393768310547	
4	0.03	-1243.56005859375	1068.962524414062	-169.4414672851562	-1263.7529296875	1061.697875976562	-332.2354125976562	-1261.124877929688	1128.187377929688	-258.8490295410156	-1049.054931640625	1326.564453125	-273.4321594238281	-1295.025146484375	1266.949584960938	-259.6951293945312	-1261.447021484375	1536.318481445312	-274.1564636230469	-1097.615966796875	1451.009643554688	-276.0263061523438	-1299.993408203125	1397.2646484375	-191.3858489990234	-1280.625366210938	1493.362426757812	-371.0002746582031	-1181.303588867188	1504.881958007812	-449.5709228515625	-1208.59326171875	1377.941772460938	-525.2877197265625	-1198.408935546875	1158.48486328125	-544.42529296875	-1253.642700195312	1146.822387695312	-454.1285400390625	-1108.210693359375	907.090087890625	-483.962158203125	-1184.777221679688	891.6864013671875	-525.7333374023438	-1183.849609375	1042.725463867188	-547.9154663085938	-1080.665893554688	725.2357788085938	-460.3759155273438	-1151.411254882812	802.685302734375	-523.3384399414062	-1084.76806640625	814.6824340820312	-495.3212890625	-1174.074340820312	1527.307250976562	-102.9278945922852	-1179.819946289062	1453.963134765625	-29.79782676696777	-1198.487060546875	1182.696411132812	-9.389496803283691	-1208.106079101562	1156.267456054688	-106.3251419067383	-1066.9248046875	926.2962646484375	-52.20840835571289	-1127.030151367188	910.6405029296875	16.13470077514648	-1181.894897460938	1107.786254882812	3.4703688621521	-1051.41650390625	747.9161987304688	-78.028564453125	-1030.740844726562	817.2990112304688	-40.90729141235352	-1084.051513671875	811.0811767578125	11.37655067443848	-1239.108276367188	1722.74755859375	-313.6270751953125	-1028.937377929688	1745.806762695312	-255.8520660400391	-1061.594970703125	1748.243530273438	-348.9995422363281	-1184.891845703125	1715.420532226562	-179.6181640625	-1176.431884765625	962.8794555664062	-447.8038024902344	-1119.607055664062	964.1288452148438	-81.5965576171875	-1024.381591796875	996.2588500976562	-163.2712097167969	-1054.458618164062	1010.85986328125	-396.7655639648438	-1137.107666015625	517.041259765625	-399.8545837402344	-1159.121215820312	653.7786865234375	-435.5608825683594	-1234.466674804688	41.62923049926758	-394.0132141113281	-1219.793701171875	288.5128479003906	-414.992919921875	-1013.094421386719	41.25872039794922	-333.7200012207031	-1072.779663085938	49.56827163696289	-315.6155700683594	-1109.545776367188	40.67639541625977	-415.2489929199219	-1303.201416015625	49.0134391784668	-339.6958618164062	-1127.50146484375	526.2998046875	-120.8867797851562	-1099.146728515625	796.4154052734375	-83.63693237304688	-1242.657348632812	48.40741348266602	-124.7301406860352	-1155.5126953125	406.4432983398438	-116.3297424316406	-1014.78857421875	45.29397964477539	-182.2274169921875	-1079.806762695312	50.50389862060547	-208.6319122314453	-1092.682861328125	45.49211502075195	-112.3131942749023	-1292.41796875	55.73561859130859	-158.1581573486328	
